<?xml version="1.0" encoding="utf-8"?>
<!-- Generator: Adobe Illustrator 15.1.0, SVG Export Plug-In . SVG Version: 6.00 Build 0)  -->
<!DOCTYPE svg PUBLIC "-//W3C//DTD SVG 1.1//EN" "http://www.w3.org/Graphics/SVG/1.1/DTD/svg11.dtd">
<svg version="1.1" id="Layer_1" xmlns="http://www.w3.org/2000/svg" xmlns:xlink="http://www.w3.org/1999/xlink" x="0px" y="0px"
	 width="649.09px" height="131.98px" viewBox="0 0 649.09 131.98" enable-background="new 0 0 649.09 131.98" xml:space="preserve">
<g>
	<path fill="#E32484" d="M134.598,0.651c-9.168,0-22.593,3.609-33.073,14.74C89.08,0.651,77.941,0.651,72.048,0.651
		c-16.701,0-27.188,11.794-29.479,14.74h-0.649V3.604H0v125.43h41.918V60.255c0-6.212,0-15.384,12.115-15.384
		c11.791,0,11.791,10.802,11.791,17.031v67.132h41.921V60.255c0-6.212,0-15.384,12.115-15.384c11.463,0,11.463,10.803,11.463,17.031
		v67.132h41.915V37.01C173.238,18.662,161.124,0.651,134.598,0.651z"/>
	<path fill="#E32484" d="M349.101,16.378h-0.652V3.606h-41.592v125.43h41.592V64.518c0-14.415,4.262-26.528,27.514-26.528V3.606
		C361.549,3.604,354.344,6.555,349.101,16.378z"/>
	<rect x="388.4" y="3.604" fill="#E32484" width="41.924" height="125.43"/>
	<path fill="#E32484" d="M598.65,0h-0.977c-11.143,0-23.252,1.311-39.631,6.558V41.26c10.152-3.925,18.668-6.217,30.129-8.188
		c3.598-0.32,7.201-0.32,10.479,0.653c6.877,1.646,11.791,6.887,11.791,15.396c-2.291-0.981-6.877-2.294-11.791-2.947
		c-2.949-0.655-6.217-0.979-9.168-0.979c-27.836,0-44.539,21.287-44.539,42.898c0,28.16,19.646,43.884,40.283,43.884
		c5.23,0,9.82-0.981,13.424-2.293c8.193-2.947,12.773-7.857,13.756-9.828h0.324v9.175h36.359V43.227
		C649.092,10.151,631.074,0,598.65,0z M612.406,95.301c-3.605,2.288-7.857,4.586-13.756,4.586h-0.326
		c-7.865,0-13.424-4.586-13.424-12.445c0-9.5,5.236-14.413,13.75-15.723c3.934-0.979,8.518-0.979,13.756-0.324V95.301z"/>
	<path fill="#E32484" d="M486.646,34.388c2.951-4.259,13.105-3.605,18.346-1.964c6.549,2.293,14.736,4.909,21.609,8.513V6.874
		c-6.223-2.613-16.699-6.225-28.164-6.225c-27.508,0-54.359,10.81-54.359,37.992c0,42.572,51.742,40.937,51.742,55.343
		c0,7.537-6.879,7.861-16.047,7.861c-12.119,0-24.563-8.841-35.695-14.406v36.354c11.463,4.908,21.613,8.188,36.023,8.188
		c31.768,0,57.313-9.826,57.313-38.974C537.414,50.434,474.209,52.731,486.646,34.388z"/>
	<path fill="#E32484" d="M237.425,0h-0.979c-11.462,0-23.251,1.311-39.958,6.558l0.33,34.703c9.824-3.925,18.672-6.217,30.133-8.188
		c3.599-0.32,7.202-0.32,10.474,0.653c6.88,1.646,11.797,6.887,11.797,15.396c-2.29-0.981-6.88-2.294-11.797-2.947
		c-3.271-0.655-6.216-0.979-9.164-0.979c-27.836,0-44.861,21.287-44.861,42.898c0,28.16,19.644,43.884,40.605,43.884
		c5.239,0,9.497-0.981,13.42-2.293c8.191-2.947,12.449-7.857,13.431-9.828h0.658v9.175h36.025V43.227
		C287.539,10.151,269.852,0,237.425,0z M250.855,95.301c-3.602,2.288-7.532,4.586-13.431,4.586h-0.653
		c-7.525,0-13.096-4.586-13.096-12.445c0-9.5,5.237-14.413,13.749-15.723c3.937-0.979,8.521-0.979,13.431-0.324V95.301z"/>
</g>
</svg>
